<svg xmlns="http://www.w3.org/2000/svg" width="203.003" height="35.83" viewBox="0 0 203.003 35.83">
  <g id="Group_84" data-name="Group 84" transform="translate(-10510 -1593.903)">
    <g id="Layer_2" data-name="Layer 2" transform="translate(10510 1593.903)">
      <g id="Layer_1" data-name="Layer 1" transform="translate(0 0)">
        <path id="Path_4" data-name="Path 4" d="M78.256,19.38a27.321,27.321,0,0,0-6.374-2.766,26.532,26.532,0,0,1-4.524-1.778,2.5,2.5,0,0,1-1.512-2.083c0-.8.159-1.041.3-1.174.259-.252.9-.557,2.481-.557H79.1V8.217H68.6a7.959,7.959,0,0,0-3.25.557,4,4,0,0,0-2.335,3.98,4.971,4.971,0,0,0,2.587,4.3,26.3,26.3,0,0,0,5.359,2.242,24.747,24.747,0,0,1,5.678,2.4A4.146,4.146,0,0,1,78.7,25.317a3.277,3.277,0,0,1-1.539,2.759,5.538,5.538,0,0,1-3.316,1.055H63v2.806H73.812a8.291,8.291,0,0,0,5.213-1.758,5.97,5.97,0,0,0,2.481-4.862,6.911,6.911,0,0,0-3.25-5.936Z" transform="translate(-21.203 -2.852)" fill="#2e4455"/>
        <path id="Path_5" data-name="Path 5" d="M108.385,16.166a8.8,8.8,0,0,0-5.439-1.671,8.935,8.935,0,0,0-4.955,1.327V8.22H95V31.906h2.965V21.254a3.409,3.409,0,0,1,1.519-2.965,6.321,6.321,0,0,1,6.892,0,3.409,3.409,0,0,1,1.519,2.965V31.906h3.025V21.254A6.1,6.1,0,0,0,108.385,16.166Z" transform="translate(-31.978 -2.855)" fill="#2e4455"/>
        <path id="Path_6" data-name="Path 6" d="M137.437,19.056a9.631,9.631,0,0,0-4.4-1.327h-.551a9.047,9.047,0,0,0-3.98.889,8.537,8.537,0,0,0-2.872,2.348,9.731,9.731,0,0,0-1.758,4.437,8.323,8.323,0,0,0-.073,1.088,9.246,9.246,0,0,0,.8,3.628,8.862,8.862,0,0,0,3.2,3.615,8.424,8.424,0,0,0,4.285,1.327h.862a12.152,12.152,0,0,0,3.748-.517,10.188,10.188,0,0,0,3.1-1.592l.119-.093V29.543l-.5.431a9.326,9.326,0,0,1-6.315,2.348h-.517a6.056,6.056,0,0,1-5.97-6.082,5.8,5.8,0,0,1,.856-2.991,5.91,5.91,0,0,1,2.6-2.3,5.685,5.685,0,0,1,2.434-.537,7.1,7.1,0,0,1,1.094.093,5.8,5.8,0,0,1,3.21,1.552,2.142,2.142,0,0,1,.75,1.552,1.618,1.618,0,0,1-.551,1.227c-2.428,1.725-5.452,2.149-8.994,1.28l-.345-.086v.822a3.151,3.151,0,0,0,.59,1.99l.066.086h.106a12.423,12.423,0,0,0,2.759.325h.345a14.791,14.791,0,0,0,4.888-.876,6.11,6.11,0,0,0,3.476-2.739,4.212,4.212,0,0,0,.537-1.99v-.073a4.9,4.9,0,0,0-.265-1.439,6.513,6.513,0,0,0-2.733-3.078Z" transform="translate(-41.675 -6.057)" fill="#2e4455"/>
        <rect id="Rectangle_1100" data-name="Rectangle 1100" width="2.965" height="23.686" transform="translate(102.249 5.365)" fill="#2e4455"/>
        <path id="Path_7" data-name="Path 7" d="M172.292,11.026h1.492V8.22h-1.492a7.2,7.2,0,0,0-5.426,2.381,9.491,9.491,0,0,0-2.421,6.759V31.906h2.972V19.6h5.253V16.8h-5.207a6.739,6.739,0,0,1,1.632-4.345A4.258,4.258,0,0,1,172.292,11.026Z" transform="translate(-55.358 -2.855)" fill="#2e4455"/>
        <path id="Path_8" data-name="Path 8" d="M197.084,10.763a8.789,8.789,0,0,0-15,6.162V31.9h2.971V16.925a5.8,5.8,0,0,1,9.9-4.219,5.791,5.791,0,0,1,1.731,4.205,5.7,5.7,0,0,1-1.718,4.172,5.6,5.6,0,0,1-4.086,1.718,8.517,8.517,0,0,1-4.776-1.784v3.316a9.14,9.14,0,0,0,4.769,1.293A8.517,8.517,0,0,0,197.1,23.06a8.377,8.377,0,0,0,2.554-6.129,8.45,8.45,0,0,0-2.574-6.169Z" transform="translate(-61.299 -2.844)" fill="#50b848"/>
        <path id="Path_9" data-name="Path 9" d="M225.55,19.056a9.657,9.657,0,0,0-4.411-1.327h-.551a9.047,9.047,0,0,0-3.98.842,8.623,8.623,0,0,0-2.872,2.348,9.83,9.83,0,0,0-1.771,4.451,8.331,8.331,0,0,0-.066,1.088,9.353,9.353,0,0,0,.769,3.661,8.875,8.875,0,0,0,3.2,3.615,8.4,8.4,0,0,0,4.285,1.327h.856a12.2,12.2,0,0,0,3.754-.517,10.268,10.268,0,0,0,3.1-1.592l.119-.093V29.542l-.5.431a9.326,9.326,0,0,1-6.315,2.348h-.517a6.062,6.062,0,0,1-5.97-6.082,5.8,5.8,0,0,1,.862-2.991,5.9,5.9,0,0,1,2.593-2.3,5.7,5.7,0,0,1,2.434-.537,7.184,7.184,0,0,1,1.1.093,5.777,5.777,0,0,1,3.2,1.552,2.142,2.142,0,0,1,.75,1.552,1.6,1.6,0,0,1-.551,1.227c-2.428,1.725-5.452,2.149-8.994,1.28l-.345-.086v.822a3.151,3.151,0,0,0,.59,1.99l.066.086h.106a12.424,12.424,0,0,0,2.759.325h.352a14.719,14.719,0,0,0,4.882-.876,6.087,6.087,0,0,0,3.476-2.739,4.14,4.14,0,0,0,.537-1.99v-.073a4.9,4.9,0,0,0-.265-1.439A6.494,6.494,0,0,0,225.55,19.056Z" transform="translate(-71.339 -6.056)" fill="#50b848"/>
        <path id="Path_10" data-name="Path 10" d="M244.323,20.246a8.351,8.351,0,0,0-2.554,6.129v8.716h2.965V26.375a5.83,5.83,0,0,1,5.89-5.89h.3V17.679h-.3A8.623,8.623,0,0,0,244.323,20.246Z" transform="translate(-81.396 -6.039)" fill="#50b848"/>
        <path id="Path_11" data-name="Path 11" d="M270.756,21.254a5.306,5.306,0,0,0,1.99-4.219v-2.54h-2.958v2.54a2.653,2.653,0,0,1-.8,1.943,2.587,2.587,0,0,1-1.9.816h-4.6V8.22H259.52V31.906h2.972V22.62h3.774a4.59,4.59,0,0,1,3.37,1.426,4.643,4.643,0,0,1,1.413,3.436v4.444h2.965V27.482a7.2,7.2,0,0,0-3.257-6.228Z" transform="translate(-87.373 -2.855)" fill="#50b848"/>
        <path id="Path_12" data-name="Path 12" d="M296.6,25.613a19.236,19.236,0,0,0-4.643-2.036A20.563,20.563,0,0,1,289,22.442c-.663-.371-.975-.763-.975-1.161a.939.939,0,0,1,.113-.557c.113-.093.438-.239,1.406-.239h8.132V17.68h-8.132c-3.575,0-4.325,1.957-4.325,3.6a3.887,3.887,0,0,0,1.99,3.316A17.769,17.769,0,0,0,291.1,26.23a17.969,17.969,0,0,1,3.794,1.592,2.554,2.554,0,0,1,1.327,2.2,1.93,1.93,0,0,1-.922,1.605,3.529,3.529,0,0,1-2.069.663h-7.96V35.1h7.959a6.215,6.215,0,0,0,3.927-1.327,4.57,4.57,0,0,0,1.871-3.714,5.167,5.167,0,0,0-2.428-4.444Z" transform="translate(-96.027 -6.04)" fill="#50b848"/>
        <path id="Path_13" data-name="Path 13" d="M35.388.562c.285-.265.431-.411.431-.411s-.192.073-.544.239a13.027,13.027,0,0,0-1.492.849A25.206,25.206,0,0,0,31.641,2.8c-.663.557-1.419,1.207-2.189,1.93A16.582,16.582,0,0,0,3.842,25.369q-.8,1.327-1.419,2.58c-.272.577-.544,1.094-.776,1.652s-.425,1.035-.6,1.519a23.547,23.547,0,0,0-.776,2.547A9.532,9.532,0,0,0,0,35.358a2.653,2.653,0,0,0,0,.451,1.373,1.373,0,0,0,0,.153l.046-.146c.033-.093.073-.232.153-.411a13.219,13.219,0,0,1,.73-1.486c.345-.623.809-1.327,1.327-2.182.272-.411.564-.849.876-1.327s.663-.909,1.028-1.386S4.943,28,5.374,27.465A16.582,16.582,0,0,0,30.8,6.239c1.327-1.884,2.534-3.423,3.429-4.471C34.738,1.251,35.11.827,35.388.562ZM17.9,3.7a12.867,12.867,0,0,1,8.966,3.64c-.2.22-.4.439-.6.665-.484.524-.968,1.088-1.459,1.658-.245.285-.484.577-.73.882l-.186.226h0l.046-.06h0l-.046.06-.1.106-.385.425c-.517.57-1.008,1.094-1.539,1.645S20.8,14,20.252,14.471a9.558,9.558,0,0,1-1.685,1.194,5.591,5.591,0,0,1-.862.385,4.5,4.5,0,0,1-.478.146c-.146.046-.378.1-.484.126l-1.22.305-.3.073-.252.046H14.74l-.338.06a13.564,13.564,0,0,0-2.653.8,12.271,12.271,0,0,0-2.434,1.327,10.613,10.613,0,0,0-1.094.862L7.994,20l-.245.232c-.159.159-.305.312-.444.464-.4.431-.769.869-1.121,1.327A12.8,12.8,0,0,1,4.99,16.626,12.941,12.941,0,0,1,17.9,3.7ZM23.874,10.789ZM17.9,29.547A12.914,12.914,0,0,1,7.815,24.685c.551-.584,1.121-1.161,1.718-1.7q.2-.179.4-.338l.186-.153.232-.172a8.822,8.822,0,0,1,.8-.544A11.5,11.5,0,0,1,13,20.931a12.218,12.218,0,0,1,2.03-.537l.219-.033.418-.073.352-.066.305-.066,1.2-.265c.285-.073.451-.113.7-.192s.458-.146.663-.226a9.22,9.22,0,0,0,1.373-.663,11.641,11.641,0,0,0,2.288-1.658,28.959,28.959,0,0,0,3.316-3.767l.345-.464.226-.305.153-.226.6-.922L28.4,9.7l.2-.292a12.8,12.8,0,0,1,2.242,7.223A12.941,12.941,0,0,1,17.9,29.547Z" transform="translate(0.014 -0.131)" fill="#50b848"/>
      </g>
    </g>
  </g>
</svg>
